<svg xmlns="http://www.w3.org/2000/svg" width="25.188" height="25.187" viewBox="0 0 25.188 25.187">
  <path id="icon1" d="M13,25.844A12.594,12.594,0,1,0,.406,13.25,12.592,12.592,0,0,0,13,25.844Zm0-22.75A10.156,10.156,0,1,1,2.844,13.25,10.153,10.153,0,0,1,13,3.094ZM14.016,19.75a.611.611,0,0,0,.609-.609V13.25h3.4a.609.609,0,0,0,.432-1.041L13.432,7.182a.61.61,0,0,0-.863,0L7.541,12.209a.61.61,0,0,0,.432,1.041h3.4v5.891a.611.611,0,0,0,.609.609Z" transform="translate(-0.406 -0.656)" fill="#627eb9"/>
</svg>
