<?xml version="1.0" encoding="utf-8"?>
<!-- Generator: Adobe Illustrator 22.1.0, SVG Export Plug-In . SVG Version: 6.00 Build 0)  -->
<svg version="1.1" id="Capa_1" xmlns="http://www.w3.org/2000/svg" xmlns:xlink="http://www.w3.org/1999/xlink" x="0px" y="0px"
	 viewBox="0 0 500 500" style="enable-background:new 0 0 500 500;" xml:space="preserve" fill="#ffffff">
<style type="text/css">
	.st0{fill:none;stroke:#000000;stroke-width:18;stroke-miterlimit:10;}
	.st1{fill:none;stroke:#000000;stroke-width:17.423;stroke-linecap:round;stroke-miterlimit:10;}
	.st2{fill:none;stroke:#000000;stroke-width:15.0922;stroke-linecap:round;stroke-miterlimit:10;}
	.st3{fill:none;stroke:#000000;stroke-width:17.1033;stroke-linecap:round;stroke-miterlimit:10;}
	.st4{fill:none;stroke:#000000;stroke-width:18;stroke-linecap:round;stroke-miterlimit:10;}
	.st5{clip-path:url(#SVGID_2_);}
	.st6{clip-path:url(#SVGID_4_);}
</style>
<g>
	<defs>
		<path id="SVGID_1_" d="M239.8,73c0-7.7,6.2-13.9,13.8-13.9c7.6,0,13.8,6.2,13.8,13.9c0,7.7-6.2,13.9-13.8,13.9
			C246,86.9,239.8,80.7,239.8,73z M239.8,31.2c0-7.7,6.2-13.9,13.8-13.9c7.6,0,13.8,6.2,13.8,13.9c0,7.7-6.2,13.9-13.8,13.9
			C246,45.1,239.8,38.9,239.8,31.2z M228.3,396c3.5,1.3,5.4,5.3,4.2,8.8c-1.2,3.6-5.2,5.5-8.8,4.3c-7.9-2.8-26.2-10.5-41-29.6
			c-18-23.2-19-48-19-55.9V191.2c0-6.9,0.8-36.5,23.9-61.6c26-28.3,60.3-29,66.1-29c5.7,0,40.2,0.6,66.2,29
			c23,25.1,23.7,54.8,23.7,61.6v132.4c0,7.8-0.9,31.1-17.3,53.7c-15.3,21.1-35.2,29.2-42.7,31.8c-3.6,1.2-7.6-0.7-8.8-4.3
			c-1.2-3.6,0.7-7.6,4.3-8.9c6.6-2.4,22.3-9.1,34.9-25.6c14.8-19.4,15.8-39.9,15.8-46.7V191.2c0-5.6-0.6-31.4-20.8-52.9
			c-22-23.3-50.4-23.8-55.3-23.8c-4.7,0-35.1,0.6-57.2,26c-20,22.8-19.2,49.5-18.9,55v128.2c0.1,6.8,1.1,26.7,15.3,45.9
			C205.6,386.7,221.8,393.6,228.3,396z M260.5,460.3l22.8-23c1.4-1.4,2.8-2.1,4.8-2.1c2.1,0,3.5,0.7,4.8,2.1c2.8,2.8,2.8,7,0,9.8
			l-34.6,34.9c-1.4,1.4-3.1,2.1-4.8,2.1c-1.7,0-3.5-0.7-4.8-2.1l-34.6-34.9c-2.8-2.8-2.8-7,0-9.8c1.4-1.4,2.8-2.1,4.8-2.1
			c2.1,0,3.5,0.7,4.8,2.1l22.8,23v-94.8c0-4.2,2.8-7,6.9-7c4.2,0,6.9,2.8,6.9,7V460.3z M253.6,184.3c3.8,0,6.9,3.1,6.9,7v41.8
			c0,3.9-3.1,7-6.9,7c-3.8,0-6.9-3.1-6.9-7v-41.8C246.7,187.4,249.8,184.3,253.6,184.3z"/>
	</defs>
	<clipPath id="SVGID_2_">
		<use xlink:href="#SVGID_1_"  style="overflow:visible;"/>
	</clipPath>
	<g class="st5">
		<defs>
			<rect id="SVGID_3_" x="-6118" y="-2790.4" width="6717.2" height="31817.5"/>
		</defs>
		<clipPath id="SVGID_4_">
			<use xlink:href="#SVGID_3_"  style="overflow:visible;"/>
		</clipPath>
		<rect x="137.4" y="-9" class="st6" width="232.4" height="519.3"/>
	</g>
</g>
</svg>
