<svg xmlns="http://www.w3.org/2000/svg" width="25.188" height="25.187" viewBox="0 0 25.188 25.187">
  <path id="icon1" d="M13,.656A12.594,12.594,0,1,0,25.594,13.25,12.592,12.592,0,0,0,13,.656Zm0,22.75A10.156,10.156,0,1,1,23.156,13.25,10.153,10.153,0,0,1,13,23.406ZM11.375,7.359V13.25h-3.4a.61.61,0,0,0-.432,1.041l5.027,5.027a.61.61,0,0,0,.863,0l5.027-5.027a.609.609,0,0,0-.432-1.041h-3.4V7.359a.611.611,0,0,0-.609-.609H11.984A.611.611,0,0,0,11.375,7.359Z" transform="translate(-0.406 -0.656)" fill="#627eb9"/>
</svg>
