<?xml version="1.0" encoding="utf-8"?>
<!-- Generator: Adobe Illustrator 22.1.0, SVG Export Plug-In . SVG Version: 6.00 Build 0)  -->
<svg version="1.1" id="Capa_1" xmlns="http://www.w3.org/2000/svg" xmlns:xlink="http://www.w3.org/1999/xlink" x="0px" y="0px"
	 viewBox="0 0 500 500" style="enable-background:new 0 0 500 500;" xml:space="preserve">
<style type="text/css">
	.st0{fill:none;stroke:#000000;stroke-width:18;stroke-miterlimit:10;}
	.st1{fill:none;stroke:#000000;stroke-width:17.423;stroke-linecap:round;stroke-miterlimit:10;}
	.st2{fill:none;stroke:#000000;stroke-width:15.0922;stroke-linecap:round;stroke-miterlimit:10;}
	.st3{fill:none;stroke:#000000;stroke-width:17.1033;stroke-linecap:round;stroke-miterlimit:10;}
	.st4{fill:none;stroke:#000000;stroke-width:18;stroke-linecap:round;stroke-miterlimit:10;}
</style>
<g>
	<g>
		<g>
			<path d="M256.2,350c-55.1,0-100-44.9-100-100c0-55.1,44.9-100,100-100c28.4,0,55.6,12.1,74.5,33.3c3.7,4.1,3.3,10.4-0.8,14.1
				c-4.1,3.7-10.4,3.3-14.1-0.8c-15.2-16.9-36.9-26.7-59.6-26.7c-44.1,0-80,35.9-80,80s35.9,80,80,80s80-35.9,80-80
				c0-4.7-0.4-9.3-1.2-13.9c-1-5.4,2.7-10.6,8.1-11.6c5.4-1,10.6,2.7,11.6,8.1c1,5.7,1.5,11.5,1.5,17.4
				C356.2,305.1,311.3,350,256.2,350z"/>
		</g>
		<g>
			<g>
				<path d="M301.2,470C301.2,470,301.2,470,301.2,470l-90.6-0.2c-2.7,0-5.2-1.1-7.1-3c-9.7-9.9-18.6-18.8-27.1-27.5
					c-85.1-86-108-109.1-113.5-214.6c-0.3-5.5,3.9-10.2,9.5-10.5c5.5-0.3,10.2,3.9,10.5,9.5c5.1,97.9,24.8,117.8,107.7,201.6
					c7.7,7.8,15.7,15.8,24.3,24.6l82.1,0.2c15-15.6,28.3-29.1,40.1-41.1c18-18.3,32.2-32.7,43.9-45.9c3.7-4.1,10-4.5,14.1-0.8
					c4.1,3.7,4.5,10,0.8,14.1c-12.1,13.6-26.4,28.2-44.6,46.7c-12.6,12.8-26.8,27.3-42.9,44C306.5,468.9,303.9,470,301.2,470z
					 M417.9,339.5c-1.6,0-3.3-0.4-4.8-1.2c-4.8-2.7-6.6-8.7-4-13.6c20.1-36.8,21.9-79,21.9-190.1c0-9.7,0-19.8,0-30.5
					c0-10.3,0-21.2,0-32.6c-21.3,2.7-40,4-56.8,4c-47.7,0-84.1-10.6-113.7-33.2C224.2,64.6,181.3,75.9,133,75.9
					c-16.7,0-34-1.4-51.8-4.1c0,5.5,0,10.9,0,16.1c0,8.3,0,16.3,0,24.1c0,20.7,0,42.6,0.3,62.2c0.1,5.5-4.3,10.1-9.9,10.1
					c-5.6,0.1-10.1-4.3-10.1-9.9c-0.3-19.7-0.3-41.6-0.3-62.4c0-7.7,0-15.8,0-24.1c0-9,0-18.3,0-27.9c0-3,1.3-5.8,3.6-7.7
					s5.3-2.7,8.2-2.1c20.7,3.8,40.8,5.7,60,5.7c47.2,0,88.4-11.5,122.7-34.2c3.7-2.5,8.6-2.2,12,0.7c26.8,22.6,60.7,33.1,106.6,33.1
					c18.8,0,40.2-1.8,65.5-5.4c2.9-0.4,5.9,0.5,8.1,2.4s3.4,4.8,3.3,7.7l-0.2,6.2c0,13.2,0,25.7,0,37.6c0,10.7,0,20.9,0,30.5
					c0,115-2,158.8-24.4,199.7C424.9,337.6,421.4,339.5,417.9,339.5z"/>
			</g>
			<g>
				<path d="M311.2,400c-2.8,0-5.5-1.1-7.5-3.4c-3.7-4.1-3.3-10.5,0.8-14.1c77.9-69.1,87.8-82.7,87.8-163.5
					c0-14.8-0.4-31.9-0.8-51.7c-0.3-14-0.6-29.5-0.9-46.7c-1.3,0-2.6,0-3.9,0c-52,0-95.2-10.3-131.8-31.5
					c-9.4,4.9-19.1,9.2-29.1,12.9c-5.2,1.9-10.9-0.7-12.9-5.9c-1.9-5.2,0.7-10.9,5.9-12.9c10.9-4.1,21.5-8.9,31.6-14.5
					c3.2-1.7,7-1.6,10,0.3c34.4,21.2,75.7,31.5,126.2,31.5c4.4,0,8.9-0.1,13.4-0.2c2.7-0.1,5.3,0.9,7.2,2.8s3.1,4.4,3.1,7.1
					c0.3,21.1,0.7,40,1,56.6c0.4,19.9,0.8,37.1,0.8,52.2c0,41.7-2.7,69.3-17.1,95.4c-13.1,23.9-34.5,44.9-77.5,83.1
					C315.9,399.2,313.6,400,311.2,400z M111.2,240c-5.4,0-9.8-4.3-10-9.7c-0.5-15.6-0.7-32.2-0.7-50.8c0-22.8,0.3-46.1,0.7-68.7
					l0-0.9c0-2.7,1.2-5.2,3.1-7.1s4.6-2.8,7.2-2.7c20.8,0.8,41.3-0.6,60.9-4.1c5.4-1,10.6,2.7,11.6,8.1c1,5.4-2.7,10.6-8.1,11.6
					c-17.3,3.1-35.3,4.6-53.4,4.6c-0.5,0-1,0-1.5,0c-0.3,20.2-0.5,39.6-0.5,59.3c0,18.4,0.2,34.8,0.7,50.2
					c0.2,5.5-4.2,10.1-9.7,10.3C111.4,240,111.3,240,111.2,240z"/>
			</g>
		</g>
		<g>
			<path d="M421.2,470h-340c-5.5,0-10-4.5-10-10s4.5-10,10-10h340c5.5,0,10,4.5,10,10S426.7,470,421.2,470z"/>
		</g>
		<g>
			<path d="M235.2,294.1c-0.4,0-0.8,0-1.3-0.1c-2.8-0.4-5.3-1.9-6.9-4.2l-25.6-36.6c-3.2-4.5-2.1-10.8,2.5-13.9
				c4.5-3.2,10.8-2.1,13.9,2.5l19.3,27.6l63.4-54.1c4.2-3.6,10.5-3.1,14.1,1.1c3.6,4.2,3.1,10.5-1.1,14.1l-71.8,61.2
				C239.8,293.3,237.5,294.1,235.2,294.1z"/>
		</g>
	</g>
</g>
</svg>
