<?xml version="1.0" encoding="utf-8"?>
<!-- Generator: Adobe Illustrator 22.1.0, SVG Export Plug-In . SVG Version: 6.00 Build 0)  -->
<svg version="1.1" id="Capa_1" xmlns="http://www.w3.org/2000/svg" xmlns:xlink="http://www.w3.org/1999/xlink" x="0px" y="0px"
	 viewBox="0 0 500 500" style="enable-background:new 0 0 500 500;" xml:space="preserve">
<style type="text/css">
	.st0{fill:none;stroke:#000000;stroke-width:18;stroke-miterlimit:10;}
	.st1{fill:none;stroke:#000000;stroke-width:17.423;stroke-linecap:round;stroke-miterlimit:10;}
	.st2{fill:none;stroke:#000000;stroke-width:15.0922;stroke-linecap:round;stroke-miterlimit:10;}
	.st3{fill:none;stroke:#000000;stroke-width:17.1033;stroke-linecap:round;stroke-miterlimit:10;}
	.st4{fill:none;stroke:#000000;stroke-width:18;stroke-linecap:round;stroke-miterlimit:10;}
</style>
<path d="M19.2,402.1c0,4.4,3.6,8,8,8h47.9c4.4,0,8-3.6,8-8v-47.9c0-4.4-3.6-8-8-8h-16v-26.4l93.3-35c18.1,18.1,41.2,30.3,66.3,35.1
	v18.3h-8c-4.4,0-8,3.6-8,8v135.6c0,4.4,3.6,8,8,8h63.8c4.4,0,8-3.6,8-8V346.2c0-4.4-3.6-8-8-8h-8V320c47.7-9.2,86.1-44.7,99.1-91.6
	l60.5,12.6v58.5c-17.1,4.4-27.3,21.8-22.9,38.9c4.4,17.1,21.8,27.3,38.9,22.9c17.1-4.4,27.3-21.8,22.9-38.9
	c-2.9-11.2-11.7-20-22.9-22.9v-65c0-3.8-2.7-7.1-6.4-7.8l-66.9-13.9c5.8-37.8-6-76.2-32.1-104.1l21.2-10.6c2.7-1.4,4.4-4.1,4.4-7.2
	v-16h16c4.4,0,8-3.6,8-8V19.1c0-4.4-3.6-8-8-8h-47.9c-4.4,0-8,3.6-8,8V67c0,4.4,3.6,8,8,8h16v11l-21.8,10.9
	c-53.9-45.3-134.3-38.3-179.7,15.6c-13.8,16.4-23.2,36-27.4,57.1l-42.4-5.8v-26.1c17.1-4.4,27.3-21.8,22.9-38.9
	c-4.4-17.1-21.8-27.3-38.9-22.9c-17.1,4.4-27.3,21.8-22.9,38.9c2.9,11.2,11.7,20,22.9,22.9v33c0,4,2.9,7.4,6.9,7.9l49.4,6.7
	c-0.2,3.1-0.5,6.2-0.5,9.3c0,28,9.3,55.2,26.3,77.3l-93,34.9c-3.1,1.2-5.2,4.1-5.2,7.5v31.9h-16c-4.4,0-8,3.6-8,8V402.1z
	 M450.1,330.3c0,8.8-7.1,16-16,16s-16-7.1-16-16s7.1-16,16-16S450.1,321.5,450.1,330.3z M338.4,27.1h31.9V59h-31.9V27.1z
	 M51.1,106.9c0-8.8,7.1-16,16-16s16,7.1,16,16s-7.1,16-16,16S51.1,115.7,51.1,106.9z M266.6,473.9h-47.9V354.2h47.9V473.9z
	 M250.6,322.3v16h-16v-16H250.6z M242.6,306.3c-27,0-53.2-9.9-73.5-27.8l17.4-6.6c42.6,31.1,102.3,21.7,133.4-20.9
	c6.5-8.8,11.3-18.7,14.4-29.2l15.6,3.3C336.4,273.1,292.5,306.3,242.6,306.3z M162.9,194.6c0-0.9,0.1-1.9,0.1-2.8l48.1,6.6
	c1.5,13,10.9,23.7,23.6,27V237l-45.2,17C172.5,238.9,162.9,217.3,162.9,194.6z M322,203l-47.6-9.9c-0.7-13.9-10.3-25.7-23.8-29.3
	v-12.2l40.5-20.3c19.7,15.1,31.3,38.4,31.3,63.2C322.4,197.4,322.3,200.2,322,203z M242.6,178.7c8.8,0,16,7.1,16,16
	c0,8.8-7.1,16-16,16c-8.8,0-16-7.1-16-16C226.7,185.8,233.8,178.7,242.6,178.7z M245.4,250c3.1-1.2,5.2-4.1,5.2-7.5v-17.1
	c8.9-2.3,16.4-8.4,20.5-16.7l47.6,9.9c-13.2,42-58,65.3-100,52.1c-4.7-1.5-9.2-3.4-13.6-5.7L245.4,250z M239.1,139.6
	c-2.7,1.4-4.4,4.1-4.4,7.1v17.1c-9.7,2.5-17.7,9.4-21.5,18.7l-48-6.6c10.2-42.8,53.1-69.2,95.9-59c4.8,1.1,9.4,2.7,13.9,4.7
	L239.1,139.6z M130.9,194.6c-0.4-61.7,49.2-112.1,110.9-112.5S353.9,131.3,354.3,193c0,5.5-0.3,11-1.1,16.5l-15.6-3.3
	c6.6-52.5-30.6-100.3-83.1-106.9C202,92.8,154.1,130,147.6,182.5c-3.5,28.4,5.8,56.8,25.4,77.6l-16.1,6
	C140.1,246.1,130.9,220.8,130.9,194.6z M35.2,362.2h31.9v31.9H35.2V362.2z"/>
</svg>
