<?xml version="1.0" encoding="utf-8"?>
<!-- Generator: Adobe Illustrator 22.1.0, SVG Export Plug-In . SVG Version: 6.00 Build 0)  -->
<svg version="1.1" id="Capa_1" xmlns="http://www.w3.org/2000/svg" xmlns:xlink="http://www.w3.org/1999/xlink" x="0px" y="0px"
	 viewBox="0 0 500 500" style="enable-background:new 0 0 500 500;" xml:space="preserve">
<style type="text/css">
	.st0{fill:none;stroke:#000000;stroke-width:18;stroke-miterlimit:10;}
	.st1{fill:none;stroke:#000000;stroke-width:17.423;stroke-linecap:round;stroke-miterlimit:10;}
	.st2{fill:none;stroke:#000000;stroke-width:15.0922;stroke-linecap:round;stroke-miterlimit:10;}
	.st3{fill:none;stroke:#000000;stroke-width:17.1033;stroke-linecap:round;stroke-miterlimit:10;}
	.st4{fill:none;stroke:#000000;stroke-width:18;stroke-linecap:round;stroke-miterlimit:10;}
</style>
<g>
	<path d="M401.5,20c-38.7,0.1-71.3,28.8-76.2,67.2H65.4c-25.5-1-47,19-48,44.5c0,1.2,0,2.3,0,3.5v297.6c-1,25.5,19,47,44.5,48
		c1.2,0,2.3,0,3.5,0h336c36.8,0,68.4-26.1,75.4-62.2c0.9-1.5,1.4-3.2,1.4-5V96.8C478.2,54.4,443.9,20,401.5,20z M401.5,461.6h-336
		c-15.1,0.8-28-10.8-28.9-25.9c-0.1-1-0.1-2,0-2.9V135.3c-0.8-15.1,10.7-28,25.9-28.8c1-0.1,2-0.1,3,0h259.2V404
		c0,5.3,4.3,9.6,9.6,9.6c5.3,0,9.6-4.3,9.6-9.6c0-31.8,25.8-57.6,57.6-57.6s57.6,25.8,57.6,57.6S433.3,461.6,401.5,461.6z
		 M459.1,353.3c-28-31.8-76.4-34.9-108.2-7c-2.5,2.2-4.8,4.5-7,7V96.8c0-31.8,25.8-57.6,57.6-57.6s57.6,25.8,57.6,57.6V353.3z"/>
	<path d="M94.2,298.4h-9.6V164H219v48c0,5.3,4.3,9.6,9.6,9.6s9.6-4.3,9.6-9.6v-48c0-10.6-8.6-19.2-19.2-19.2H84.6
		c-10.6,0-19.2,8.6-19.2,19.2v134.4c0,10.6,8.6,19.2,19.2,19.2h9.6c5.3,0,9.6-4.3,9.6-9.6C103.8,302.7,99.5,298.4,94.2,298.4z"/>
	<path d="M209.4,240.8c-47.7,0-86.4,38.7-86.4,86.4s38.7,86.4,86.4,86.4s86.4-38.7,86.4-86.4C295.8,279.5,257.1,240.9,209.4,240.8z
		 M209.4,394.4c-37.1,0-67.2-30.1-67.2-67.2s30.1-67.2,67.2-67.2s67.2,30.1,67.2,67.2C276.6,364.3,246.5,394.4,209.4,394.4z"/>
</g>
</svg>
