<?xml version="1.0" encoding="utf-8"?>
<!-- Generator: Adobe Illustrator 22.1.0, SVG Export Plug-In . SVG Version: 6.00 Build 0)  -->
<svg version="1.1" id="Capa_1" xmlns="http://www.w3.org/2000/svg" xmlns:xlink="http://www.w3.org/1999/xlink" x="0px" y="0px"
	 viewBox="0 0 500 500" style="enable-background:new 0 0 500 500;" xml:space="preserve">
<style type="text/css">
	.st0{fill:none;stroke:#000000;stroke-width:18;stroke-miterlimit:10;}
	.st1{fill:none;stroke:#000000;stroke-width:17.423;stroke-linecap:round;stroke-miterlimit:10;}
	.st2{fill:none;stroke:#000000;stroke-width:15.0922;stroke-linecap:round;stroke-miterlimit:10;}
	.st3{fill:none;stroke:#000000;stroke-width:17.1033;stroke-linecap:round;stroke-miterlimit:10;}
	.st4{fill:none;stroke:#000000;stroke-width:18;stroke-linecap:round;stroke-miterlimit:10;}
</style>
<path d="M137.7,314.6c25.5,0,46.2-20.7,46.2-46.2s-20.7-46.2-46.2-46.2s-46.2,20.7-46.2,46.2C91.5,293.9,112.2,314.6,137.7,314.6z
	 M137.7,237.7c17,0,30.8,13.8,30.8,30.8s-13.8,30.8-30.8,30.8s-30.8-13.8-30.8-30.8S120.7,237.7,137.7,237.7z"/>
<path d="M168.7,126.5c-19.2-17.2-49.1-15.2-65.7,4.9c-15.1,18.2-13.6,45.5,3.4,62c18.8,18.1,48.6,16.9,65.9-2.3
	c12.9-14.4,15.4-35.4,6.1-52.4l17.1-17.1c3-3,3-7.9,0-10.9l0,0c-3-3-7.9-3-10.9,0L168.7,126.5z M168.5,160.7
	c0,17.7-14.9,31.8-32.8,30.7c-15.3-1-27.8-13.4-28.8-28.8c-1.1-17.9,13.1-32.8,30.7-32.8c7.4,0,14.5,2.7,20,7.6l-20,20l-4.5-4.5
	c-3-3-7.9-3-10.9,0l0,0c-3,3-3,7.9,0,10.9l10,10c3,3,7.9,3,10.9,0l23.4-23.4C167.8,153.7,168.4,157.2,168.5,160.7z"/>
<path d="M184.5,326.2l-15.9,15.9c-19.2-17.2-49.1-15.2-65.7,4.9c-15.1,18.2-13.6,45.5,3.4,62c18.8,18.1,48.6,16.9,65.9-2.3
	c12.9-14.4,15.4-35.4,6.1-52.4l17.1-17.1c3-3,3-7.9,0-10.9h0C192.4,323.2,187.5,323.2,184.5,326.2z M168.5,376.2
	c0,17.7-14.9,31.8-32.8,30.7c-15.3-1-27.8-13.4-28.8-28.8c-1.1-17.9,13.1-32.8,30.7-32.8c7.4,0,14.5,2.7,20,7.6l-20,20l-4.5-4.5
	c-3-3-7.9-3-10.9,0h0c-3,3-3,7.9,0,10.9l10,10c3,3,7.9,3,10.9,0l23.4-23.4C167.8,369.2,168.4,372.7,168.5,376.2z"/>
<path class="st0" d="M376.1,472.5H99.4c-21.4,0-38.7-17.3-38.7-38.7V66.2c0-21.4,17.3-38.7,38.7-38.7h276.7
	c21.4,0,38.7,17.3,38.7,38.7v367.6C414.8,455.2,397.5,472.5,376.1,472.5z"/>
<line class="st1" x1="105.6" y1="70.3" x2="221.5" y2="70.3"/>
<line class="st2" x1="220.1" y1="145.3" x2="307" y2="145.3"/>
<line class="st2" x1="220.1" y1="176.1" x2="346.3" y2="176.1"/>
<line class="st3" x1="253.3" y1="70.3" x2="297.1" y2="70.3"/>
<line class="st2" x1="221.1" y1="253.3" x2="308" y2="253.3"/>
<line class="st2" x1="221.1" y1="284.1" x2="347.3" y2="284.1"/>
<line class="st2" x1="221.1" y1="360.3" x2="308" y2="360.3"/>
<line class="st2" x1="221.1" y1="391.1" x2="347.3" y2="391.1"/>
</svg>
