<svg xmlns="http://www.w3.org/2000/svg" xmlns:xlink="http://www.w3.org/1999/xlink" width="260" height="53.906" viewBox="0 0 260 53.906">
  <defs>
    <clipPath id="clip-path">
      <rect width="260" height="53.906" fill="none"/>
    </clipPath>
  </defs>
  <g id="exatec-logo" clip-path="url(#clip-path)">
    <path id="Path_33" data-name="Path 33" d="M184.118,235.228h38.667v8.7H208.41v43.015h-9.932V243.927H184.118Z" transform="translate(-59.865 -234.099)" fill="#fff"/>
    <path id="Path_34" data-name="Path 34" d="M248.855,235.225v8.658l-28.082,0v11.67h26.373v8.567H220.774v14.15l28.082,0,.012,8.682-38.374,0V235.225Z" transform="translate(-41.493 -234.102)" fill="#fff"/>
    <path id="Path_35" data-name="Path 35" d="M183.963,263.822h15.369l-8.06-19.78Zm-15.746,14.266L184.9,235.223h13.667l19.459,51.712H207.3l-5.253-13.683h-21.2l-5.907,13.683h-12.88l-18.019-25.611,18.492-26.1H174.4c-.419.451-17.905,26.1-17.905,26.1Z" transform="translate(-87.779 -234.103)" fill="#627eb9"/>
    <path id="Path_36" data-name="Path 36" d="M275.05,267.471h8.785A26.223,26.223,0,0,1,281.6,276.2a21.433,21.433,0,0,1-4.961,6.639,19.354,19.354,0,0,1-6.73,4.185,25.383,25.383,0,0,1-8.732,1.442,27.151,27.151,0,0,1-10.68-2.017,23.311,23.311,0,0,1-7.938-5.7,25.108,25.108,0,0,1-4.979-8.444,31.416,31.416,0,0,1-1.732-10.536,31.863,31.863,0,0,1,1.732-10.681,25.662,25.662,0,0,1,4.979-8.661,22.87,22.87,0,0,1,7.938-5.773,26.286,26.286,0,0,1,10.68-2.092,25.635,25.635,0,0,1,8.011,1.227,19,19,0,0,1,6.388,3.609,18.676,18.676,0,0,1,4.979,5.772,21.115,21.115,0,0,1,2.849,7.94h-8.858c-2.679-5.534-7.86-9.285-13.813-9.285-8.7,0-15.752,8.008-15.752,17.887S252.03,279.6,260.73,279.6C267.653,279.6,273.639,275.344,275.05,267.471Z" transform="translate(-23.835 -234.563)" fill="#fff"/>
    <path id="Path_37" data-name="Path 37" d="M149.241,235.223v8.659l-28.1.008v11.665h26.34v8.574h-26.34V278.3l28.1,0v8.635c17.9-25.613,17.9-25.613,17.9-25.613S149.241,235.24,149.241,235.223Zm0,51.714-38.362.005V235.223h50.226l18.494,26.1-18.021,25.611Z" transform="translate(-110.879 -234.103)" fill="#fff"/>
  </g>
</svg>
