<svg xmlns="http://www.w3.org/2000/svg" width="151.505" height="40" viewBox="0 0 151.505 40">
  <g id="Group_53" data-name="Group 53" transform="translate(-1095.461 -1512.875)">
    <path id="Path_8" data-name="Path 8" d="M-139.917-627.108v-2.61c.31-.057.613-.111.914-.169a14.267,14.267,0,0,0,4.141-1.406,9.591,9.591,0,0,0,3.008-2.509c.069-.088.129-.183.222-.317H-153c.091.132.154.236.23.331a9.885,9.885,0,0,0,3.906,2.937,16.583,16.583,0,0,0,3.911,1.087c.072.012.143.031.229.05v2.6a18.807,18.807,0,0,1-16.5-17.631A18.905,18.905,0,0,1-142.9-664.8a18.934,18.934,0,0,1,19.514,19.242A18.876,18.876,0,0,1-139.917-627.108Zm2.8-35.591a1.2,1.2,0,0,0-.072.206,5.622,5.622,0,0,1-1.129,2.687,14.8,14.8,0,0,1-1.655,1.956c-1.227,1.222-2.466,2.431-3.7,3.642-1.688,1.652-3.387,3.293-5.063,4.957a19.724,19.724,0,0,0-1.425,1.6,7.492,7.492,0,0,0-1.2,2.11,5.071,5.071,0,0,0,.615,4.961,2.785,2.785,0,0,0,.2.216c.021-.3.026-.541.056-.78a6.864,6.864,0,0,1,.974-2.624,13.679,13.679,0,0,1,2.009-2.611c.581-.6,1.2-1.153,1.8-1.738q4.164-4.111,8.32-8.231a5.845,5.845,0,0,0,1.147-1.613,3.94,3.94,0,0,0,.416-2.329A4.381,4.381,0,0,0-137.117-662.7Zm-5.29-1.3c-.006.119-.012.161-.009.2a4.465,4.465,0,0,1-.356,1.97,7.287,7.287,0,0,1-1.578,2.357c-.731.75-1.484,1.48-2.23,2.215q-2.982,2.938-5.965,5.875a9.693,9.693,0,0,0-2.009,2.721,5.739,5.739,0,0,0-.426,4.055,8.029,8.029,0,0,0,2.009,3.419.74.74,0,0,0,.134.082c-.014-.1-.018-.161-.031-.22-.064-.281-.137-.56-.2-.842a6.746,6.746,0,0,1,1.037-5.382,13.15,13.15,0,0,1,1.689-1.968q4.178-4.123,8.348-8.255a5.454,5.454,0,0,0,1.113-1.558,3.389,3.389,0,0,0,.356-1.387A4.074,4.074,0,0,0-142.407-664Zm7.725,5.97c-.033.04-.062.06-.069.085a3.58,3.58,0,0,1-.621,1.222c-.464.613-.931,1.228-1.449,1.795-.662.726-1.368,1.413-2.069,2.1q-3.36,3.307-6.732,6.6a12.638,12.638,0,0,0-2.131,2.551,8.039,8.039,0,0,0-1.262,4.944,5.091,5.091,0,0,0,1.792,3.5c.068.059.147.105.222.159.021-.036.032-.046.03-.054-.013-.063-.025-.126-.042-.187a6.223,6.223,0,0,1-.141-2.635,9.051,9.051,0,0,1,1.268-3.4,15.622,15.622,0,0,1,2.516-3.065q3.572-3.5,7.127-7.024a10.494,10.494,0,0,0,1.107-1.286,5.152,5.152,0,0,0,.524-5.2A.741.741,0,0,0-134.682-658.026Zm4.335,1.883c-.052.063-.08.084-.09.112a5.928,5.928,0,0,1-.847,1.429,22.828,22.828,0,0,1-2.3,2.591q-4.1,4.04-8.218,8.068a10.4,10.4,0,0,0-2.013,2.562,4.866,4.866,0,0,0-.526,3.379,6.73,6.73,0,0,0,1.41,2.775,1.472,1.472,0,0,0,.146.141c0-.3,0-.591,0-.878a6.419,6.419,0,0,1,.8-2.844,12.116,12.116,0,0,1,1.846-2.651c.677-.742,1.389-1.452,2.1-2.157q3.061-3.018,6.136-6.022a9.069,9.069,0,0,0,1.343-1.589A5.053,5.053,0,0,0-130.347-656.143Zm-8.138,21.138c.05-.216.084-.37.122-.523a7.331,7.331,0,0,1,.946-2.094,16.412,16.412,0,0,1,2.484-2.967c1.045-1.026,2.092-2.049,3.114-3.1a5.4,5.4,0,0,0,1.56-4.6,3.306,3.306,0,0,0-.19-.925,7.415,7.415,0,0,1-.5.732c-.359.409-.729.81-1.122,1.188-1.671,1.608-3.353,3.2-5.028,4.808a7.711,7.711,0,0,0-2,3.095,5.044,5.044,0,0,0-.223,2.775A3.442,3.442,0,0,0-138.484-635.005Z" transform="translate(1256.714 2177.679)" fill="#fff"/>
    <path id="Path_9" data-name="Path 9" d="M356.363-496.487c-.327.677-.6,1.377-.907,2.065s-.6,1.392-.9,2.088l-.915,2.119q-.451,1.045-.9,2.089c-.3.7-.6,1.391-.907,2.094h-.49c-1.4-3.4-2.77-6.825-4.171-10.235l-.085.012c-.015.131-.038.262-.044.394-.041.822-.086,1.644-.117,2.466-.06,1.6-.119,3.2-.163,4.807a9.3,9.3,0,0,0,.061,1.119.884.884,0,0,0,.743.816c.238.059.483.089.725.131.083.014.167.023.272.037v.562c-.278.07-4.314.075-4.632.005v-.555c.166-.033.341-.064.515-.1a1.208,1.208,0,0,0,1.121-1.173q.2-1.492.333-2.993c.116-1.3.205-2.6.3-3.9.043-.6.072-1.195.1-1.793a4.025,4.025,0,0,0-.019-.577.954.954,0,0,0-.832-.957c-.278-.067-.563-.1-.864-.158v-.532c.248-.064,3.075-.088,3.745-.031l4.021,9.017h.078l4.1-9.026h3.7v.579l-.5.079c-.053.008-.107.01-.159.018-.719.114-.964.374-.989,1.1-.017.5,0,1,.008,1.507q.065,2.789.14,5.578c.02.726.058,1.452.095,2.177a1.979,1.979,0,0,0,.068.378.816.816,0,0,0,.614.634c.206.054.418.087.627.126.113.021.227.036.349.056v.526c-.236.077-5.028.1-5.55.029l-.025-.536c.112-.026.2-.051.292-.068.158-.028.318-.043.474-.078a.886.886,0,0,0,.794-.873,7.923,7.923,0,0,0,.053-.928q-.016-3.881-.044-7.761c0-.1-.013-.2-.02-.307Z" transform="translate(819.068 2033.797)" fill="#fff"/>
    <path id="Path_10" data-name="Path 10" d="M635.757-593.234a2.314,2.314,0,0,1-1.715-2.039,5.169,5.169,0,0,0,1.9-1.265c-.1-.056-.171-.1-.244-.134a2.71,2.71,0,0,1-1.592-2.665,2.927,2.927,0,0,1,1.665-2.593,4.164,4.164,0,0,1,3.741-.151,1.631,1.631,0,0,0,.868.129c.69-.08,1.381-.144,2.073-.208.076-.007.193.007.224.055a.266.266,0,0,1-.033.23c-.176.267-.362.527-.553.783a.422.422,0,0,1-.427.154c-.274-.032-.551-.04-.865-.061a1.221,1.221,0,0,0,.086.2,2.842,2.842,0,0,1-.975,3.917,4.346,4.346,0,0,1-2.934.543.475.475,0,0,0-.495.12.65.65,0,0,0,.231,1.117,1.926,1.926,0,0,0,.847.141c.588,0,1.176-.031,1.764-.018a6.845,6.845,0,0,1,1.209.115,2.174,2.174,0,0,1,1.815,2.779,3.392,3.392,0,0,1-1.233,2.048,5.74,5.74,0,0,1-5.336,1.239,3.111,3.111,0,0,1-1.371-.735,2.253,2.253,0,0,1-.633-.95,1.338,1.338,0,0,1,.359-1.5,6.914,6.914,0,0,1,.591-.492c.255-.194.521-.374.78-.563C635.582-593.087,635.652-593.149,635.757-593.234Zm2.3,0-.006.031c-.288.015-.576.027-.864.045a1.676,1.676,0,0,0-1.421.957,1.312,1.312,0,0,0-.122.993,1.893,1.893,0,0,0,1.134,1.27,3.452,3.452,0,0,0,2.714.061,1.86,1.86,0,0,0,1.025-.879,1.473,1.473,0,0,0-.974-2.272C639.054-593.137,638.549-593.164,638.053-593.231Zm1.168-6.019a3.732,3.732,0,0,0-.209-1.391,1.85,1.85,0,0,0-.605-.888,1.081,1.081,0,0,0-1.585.21,2.541,2.541,0,0,0-.383.8,4.157,4.157,0,0,0,.072,2.37,1.889,1.889,0,0,0,.522.87,1.137,1.137,0,0,0,1.246.253,1.258,1.258,0,0,0,.673-.7A3.428,3.428,0,0,0,639.221-599.249Z" transform="translate(568.043 2123.663)" fill="#fff"/>
    <path id="Path_11" data-name="Path 11" d="M178.259-493.611v.49l-3.558.746v-1.12c-.126.062-.212.1-.29.145q-.534.326-1.063.658a2.225,2.225,0,0,1-1.907.241,3.95,3.95,0,0,1-2.954-3.216,4.785,4.785,0,0,1,3.134-5.432,4.892,4.892,0,0,1,2.86-.294,1.108,1.108,0,0,0,.209,0c.005-.112.015-.217.015-.321,0-.791,0-1.582,0-2.373a4.162,4.162,0,0,0-.036-.478.66.66,0,0,0-.576-.6c-.249-.052-.5-.085-.771-.13v-.488l3.537-.673v.365q0,5.58,0,11.16a5.7,5.7,0,0,0,.034.639.59.59,0,0,0,.54.548c.2.034.4.053.6.082C178.107-493.651,178.177-493.63,178.259-493.611Zm-3.555-3.342v-2.467a.28.28,0,0,1,0-.032.668.668,0,0,0-.149-.475,1.776,1.776,0,0,0-2.62-.35,2.712,2.712,0,0,0-.84,1.263,5.81,5.81,0,0,0-.217,2.687,3.321,3.321,0,0,0,.865,1.889,2.147,2.147,0,0,0,2.662.442.476.476,0,0,0,.306-.493C174.693-495.308,174.7-496.13,174.7-496.952Z" transform="translate(971.136 2040.499)" fill="#fff"/>
    <path id="Path_12" data-name="Path 12" d="M169.228-632.8c-.369,0-.687-.013-1,0-.437.022-.873.057-1.309.1a1.225,1.225,0,0,0-1.038.757c-.179.4-.307.817-.452,1.229-.049.139-.084.283-.125.423h-.626l.216-3.3c.248-.065,10.39-.088,10.9-.026l.188,3.272-.6.027c-.06-.216-.107-.413-.17-.6-.1-.293-.2-.587-.313-.873a1.407,1.407,0,0,0-1.264-.944c-.671-.047-1.345-.045-2.018-.061a.634.634,0,0,0-.152.046v.344q0,4.746,0,9.492a6.86,6.86,0,0,0,.054.734.917.917,0,0,0,.777.861c.271.059.547.09.822.131.084.013.169.018.282.03v.582h-6.047v-.574c.223-.031.433-.058.642-.089.105-.015.211-.033.315-.058a.961.961,0,0,0,.867-.993c.028-.287.047-.576.047-.863q.005-4.586,0-9.172Z" transform="translate(974.357 2150.688)" fill="#fff"/>
    <path id="Path_13" data-name="Path 13" d="M363.728-601.177v-.431l3.24-.752v1.431c.15-.094.245-.151.337-.213.443-.3.877-.612,1.331-.893a2.361,2.361,0,0,1,1.791-.284,2.226,2.226,0,0,1,1.561,1.172,3.979,3.979,0,0,1,.414,1.923c.009,1.262,0,2.523,0,3.785,0,.192,0,.385.017.577a.713.713,0,0,0,.677.759c.146.03.294.053.459.082.008.086.02.168.022.251s-.006.169-.01.25c-.243.065-4,.079-4.371.015v-.505l.377-.082a.676.676,0,0,0,.625-.664,5,5,0,0,0,.05-.638c0-1.208.008-2.416,0-3.625a3.857,3.857,0,0,0-.1-.824,1.418,1.418,0,0,0-1.85-1.113,3.069,3.069,0,0,0-1.216.626.306.306,0,0,0-.111.282c0,.256,0,.513,0,.77,0,1.315,0,2.63,0,3.945,0,.213.026.426.048.638a.638.638,0,0,0,.574.6l.394.081v.527h-4.5c-.008-.086-.022-.167-.023-.249s.007-.168.012-.27c.237-.047.466-.083.692-.138a.7.7,0,0,0,.634-.731c.016-.159.018-.32.018-.481q0-2.261,0-4.522a4.152,4.152,0,0,0-.047-.606.621.621,0,0,0-.46-.524C364.126-601.069,363.941-601.117,363.728-601.177Z" transform="translate(802.145 2123.601)" fill="#fff"/>
    <path id="Path_14" data-name="Path 14" d="M555.573-460.97v.487a40.3,40.3,0,0,1-4.366.021v-.506c.126-.028.249-.054.372-.083a.686.686,0,0,0,.63-.7,6.639,6.639,0,0,0,.041-.736c0-1.133.009-2.266,0-3.4a4.327,4.327,0,0,0-.1-.92,1.409,1.409,0,0,0-1.726-1.136,2.942,2.942,0,0,0-1.335.662.408.408,0,0,0-.106.278c-.012.384-.006.77-.005,1.154,0,1.251,0,2.5.008,3.752a3.382,3.382,0,0,0,.06.539.577.577,0,0,0,.462.477c.154.041.312.067.489.1v.5c-.23.071-4.041.094-4.5.024v-.516c.144-.028.3-.055.453-.087a3.429,3.429,0,0,0,.373-.088.61.61,0,0,0,.442-.5,2.931,2.931,0,0,0,.055-.476q.006-2.421,0-4.842c0-.021,0-.043,0-.064-.024-.683-.166-.862-.817-1.028l-.259-.066v-.442l3.208-.749c.059.442-.016.909.048,1.417.122-.08.216-.141.309-.2.443-.3.878-.61,1.331-.892a2.34,2.34,0,0,1,1.821-.279,2.262,2.262,0,0,1,1.651,1.429,3.525,3.525,0,0,1,.271,1.343c.005,1.379,0,2.758.011,4.137,0,.224.022.448.045.671a.644.644,0,0,0,.533.6C555.159-461.043,555.349-461.014,555.573-460.97Z" transform="translate(644.444 2008.345)" fill="#fff"/>
    <path id="Path_15" data-name="Path 15" d="M563.128-602.353a4.376,4.376,0,0,1,4.679,3.891,4.983,4.983,0,0,1-.466,2.839,4.2,4.2,0,0,1-3.3,2.366,4.6,4.6,0,0,1-2.868-.439,4.142,4.142,0,0,1-2.278-3.252,4.654,4.654,0,0,1,.354-2.666A4.44,4.44,0,0,1,563.128-602.353Zm2.264,5.012a7.93,7.93,0,0,0-.334-2.57,3.112,3.112,0,0,0-.643-1.17,1.51,1.51,0,0,0-2.5.188,3.343,3.343,0,0,0-.468,1.15,7.923,7.923,0,0,0-.038,2.929A5.2,5.2,0,0,0,562-595a2.339,2.339,0,0,0,.79.867,1.456,1.456,0,0,0,2.062-.487,3.4,3.4,0,0,0,.328-.795A6.716,6.716,0,0,0,565.392-597.341Z" transform="translate(632.887 2123.576)" fill="#fff"/>
    <path id="Path_16" data-name="Path 16" d="M811.343-602.358a4.383,4.383,0,0,1,4.668,3.84,5.053,5.053,0,0,1-.387,2.727,4.177,4.177,0,0,1-3.387,2.529,4.531,4.531,0,0,1-3.336-.721A4.171,4.171,0,0,1,807.1-597a4.7,4.7,0,0,1,.366-2.633A4.438,4.438,0,0,1,811.343-602.358Zm2.255,5c0-.135,0-.231,0-.327a7.1,7.1,0,0,0-.4-2.42,2.774,2.774,0,0,0-.694-1.1,1.486,1.486,0,0,0-2.334.231,3.287,3.287,0,0,0-.528,1.261,7.966,7.966,0,0,0-.029,2.9,5.337,5.337,0,0,0,.553,1.73,2.485,2.485,0,0,0,.732.878,1.474,1.474,0,0,0,2.2-.478,3.341,3.341,0,0,0,.284-.711A6.78,6.78,0,0,0,813.6-597.355Z" transform="translate(417.857 2123.58)" fill="#fff"/>
    <path id="Path_17" data-name="Path 17" d="M477.5-460.155a4.313,4.313,0,0,1-3.153-1.19,4.342,4.342,0,0,1-1.294-3.647,4.734,4.734,0,0,1,.179-1.007,4.421,4.421,0,0,1,3.794-3.242,4.267,4.267,0,0,1,4.909,3.479,4.965,4.965,0,0,1-.511,3.388,4.211,4.211,0,0,1-3.062,2.16,3.356,3.356,0,0,1-.413.056C477.8-460.147,477.649-460.155,477.5-460.155Zm2.073-4.118a7.649,7.649,0,0,0-.4-2.761,2.755,2.755,0,0,0-.694-1.1,1.493,1.493,0,0,0-2.336.23,3.29,3.29,0,0,0-.521,1.23,7.936,7.936,0,0,0-.03,2.961,5.333,5.333,0,0,0,.532,1.67,2.511,2.511,0,0,0,.773.925,1.47,1.47,0,0,0,2.159-.469,3.309,3.309,0,0,0,.3-.737A6.768,6.768,0,0,0,479.572-464.273Z" transform="translate(707.223 2008.303)" fill="#fff"/>
    <path id="Path_18" data-name="Path 18" d="M445.324-597.521a4.625,4.625,0,0,1,2.076-4.145,4.5,4.5,0,0,1,3.96-.542,4.285,4.285,0,0,1,2.944,3.8,5.249,5.249,0,0,1-.378,2.48,4.224,4.224,0,0,1-3.407,2.6,4.53,4.53,0,0,1-2.694-.356A4.168,4.168,0,0,1,445.324-597.521Zm2.425-.783c.028.362.045.725.087,1.085a5.8,5.8,0,0,0,.579,2.02,2.5,2.5,0,0,0,.794.948,1.459,1.459,0,0,0,2.136-.463,3.345,3.345,0,0,0,.352-.921,9.138,9.138,0,0,0,.1-3.154,5.161,5.161,0,0,0-.531-1.835,2.166,2.166,0,0,0-.676-.8,1.452,1.452,0,0,0-2.059.265,2.856,2.856,0,0,0-.5.958A6.6,6.6,0,0,0,447.749-598.3Z" transform="translate(731.225 2123.652)" fill="#fff"/>
    <path id="Path_19" data-name="Path 19" d="M900.834-466.828v-.5h4.5v.511c-.131.037-.263.069-.393.111-.427.136-.533.319-.395.746.2.63.428,1.253.645,1.879q.429,1.241.86,2.482c.038.109.084.216.147.376a2.139,2.139,0,0,0,.134-.251c.5-1.408,1.009-2.814,1.494-4.228.208-.607.047-.859-.581-1.025l-.36-.092v-.513h3.467v.511c-.118.032-.229.067-.341.092a1.383,1.383,0,0,0-.967.726c-.146.273-.3.544-.418.829q-1.858,4.5-3.7,9.008a19.379,19.379,0,0,0-.621,1.852.707.707,0,0,1-.978.544,1.366,1.366,0,0,1-.876-.654.737.737,0,0,1,.182-1.028,3.54,3.54,0,0,1,.428-.281,4.413,4.413,0,0,0,1.822-2.477,1.36,1.36,0,0,0-.085-.94c-.422-1.142-.833-2.288-1.264-3.426-.37-.979-.761-1.95-1.144-2.923-.051-.129-.114-.253-.169-.381a1.381,1.381,0,0,0-1.075-.864C901.058-466.764,900.967-466.794,900.834-466.828Z" transform="translate(336.608 2006.607)" fill="#fff"/>
    <path id="Path_20" data-name="Path 20" d="M241.569-598.264a3.612,3.612,0,0,0,1.174,2.872,2.581,2.581,0,0,0,2.633.385,5.7,5.7,0,0,0,.924-.5,2.889,2.889,0,0,0,.27-.2l.314.445a4.426,4.426,0,0,1-3.406,2.045,3.7,3.7,0,0,1-3.8-2.794,5.011,5.011,0,0,1,2.667-6,3.146,3.146,0,0,1,4.336,1.494,2.9,2.9,0,0,1,.284,1.239c0,.458-.171.654-.62.687-1.236.092-2.472.174-3.709.259C242.3-598.308,241.96-598.289,241.569-598.264Zm.108-.939c.04.03.048.042.057.042.937-.016,1.874-.027,2.811-.053.19-.005.274-.115.284-.322a2.348,2.348,0,0,0-.442-1.568,1.161,1.161,0,0,0-1.765-.2,2.255,2.255,0,0,0-.433.507A3.564,3.564,0,0,0,241.677-599.2Z" transform="translate(909.557 2123.585)" fill="#fff"/>
    <path id="Path_21" data-name="Path 21" d="M845.049-465.233a5.038,5.038,0,0,0,.069.67,6.446,6.446,0,0,0,.338,1.163,2.614,2.614,0,0,0,3.3,1.454,3.8,3.8,0,0,0,1.295-.754l.312.424c-.049.077-.088.151-.139.216a5.4,5.4,0,0,1-1.667,1.428,3.758,3.758,0,0,1-5.112-1.651,5.014,5.014,0,0,1,2.713-6.843,3.13,3.13,0,0,1,4.25,2.38,3.07,3.07,0,0,1,.036.574.514.514,0,0,1-.508.583c-.423.054-.85.091-1.276.118-1.13.072-2.26.134-3.39.2C845.211-465.266,845.15-465.25,845.049-465.233Zm.111-.9c.993-.016,1.932.015,2.867-.072.228-.021.305-.134.3-.41a2.524,2.524,0,0,0-.377-1.371,1.188,1.188,0,0,0-1.938-.226A3.268,3.268,0,0,0,845.16-466.128Z" transform="translate(386.746 2008.358)" fill="#fff"/>
    <path id="Path_22" data-name="Path 22" d="M255.794-462.617l.29.418c-.052.08-.092.155-.143.22a4.616,4.616,0,0,1-2.664,1.78,3.744,3.744,0,0,1-4.143-2.089,5.048,5.048,0,0,1,1.246-5.855,4.35,4.35,0,0,1,2.207-1.1,3.143,3.143,0,0,1,3.52,2.436,3.381,3.381,0,0,1,.064.668.532.532,0,0,1-.539.622c-.381.049-.765.084-1.149.108-1.163.073-2.326.138-3.489.207-.052,0-.1.012-.182.022a1.547,1.547,0,0,0-.024.244,4.382,4.382,0,0,0,.345,1.523,2.69,2.69,0,0,0,3.939,1.275C255.315-462.269,255.535-462.442,255.794-462.617Zm-4.907-3.467c.118.009.2.022.283.021q1.09-.014,2.18-.033a2.9,2.9,0,0,0,.383-.031c.224-.035.3-.106.311-.334a2.347,2.347,0,0,0-.472-1.594,1.144,1.144,0,0,0-1.7-.2A3.068,3.068,0,0,0,250.887-466.084Z" transform="translate(901.576 2008.288)" fill="#fff"/>
    <path id="Path_23" data-name="Path 23" d="M676.388-462.331a4.781,4.781,0,0,1-2.759,1.976,3.737,3.737,0,0,1-4.04-1.76,4.546,4.546,0,0,1-.6-2.488,4.883,4.883,0,0,1,2.876-4.466,3,3,0,0,1,2.924.015,3.077,3.077,0,0,1,1.671,2.536,1.839,1.839,0,0,1,0,.256c-.019.4-.152.563-.558.6-.7.072-1.4.128-2.107.175-.842.055-1.685.093-2.527.139-.052,0-.1.015-.193.029.008.163.013.318.025.472a4.063,4.063,0,0,0,.3,1.239,2.661,2.661,0,0,0,3.708,1.447,9.867,9.867,0,0,0,.976-.58Zm-5.216-3.912a1.24,1.24,0,0,0,.207.035q1.23-.018,2.461-.043a1.175,1.175,0,0,0,.191-.02c.219-.04.3-.116.3-.341a2.4,2.4,0,0,0-.419-1.512,1.17,1.17,0,0,0-1.853-.194A3.225,3.225,0,0,0,671.172-466.243Z" transform="translate(537.466 2008.432)" fill="#fff"/>
    <path id="Path_24" data-name="Path 24" d="M522.019-626.226v.493c-.227.069-4.253.1-4.816.029v-.518l.355-.076c.125-.027.252-.048.375-.084a.694.694,0,0,0,.536-.61,4.663,4.663,0,0,0,.053-.605q.005-4.808,0-9.617a4.841,4.841,0,0,0-.049-.541.6.6,0,0,0-.5-.549c-.155-.038-.315-.058-.472-.087-.071-.013-.142-.031-.227-.049v-.441l3.391-.682c0,.109.015.231.015.353q0,5.738,0,11.476c0,.192,0,.385.015.576a.793.793,0,0,0,.785.848C521.645-626.28,521.814-626.257,522.019-626.226Z" transform="translate(668.955 2155.811)" fill="#fff"/>
    <path id="Path_25" data-name="Path 25" d="M624.946-485.316c-.008.144-.019.248-.019.352,0,1.5-.008,2.994,0,4.491a4.881,4.881,0,0,0,.117,1.015,1.042,1.042,0,0,0,1.308.867c.26-.047.516-.12.806-.189l.166.569c-.653.3-1.266.631-1.918.854a1.935,1.935,0,0,1-2.525-1.467,4.761,4.761,0,0,1-.086-.955c-.008-1.7,0-3.4,0-5.1v-.41c-.132-.011-.234-.025-.335-.026-.267,0-.535.006-.8,0-.221-.009-.29-.143-.165-.313a3.824,3.824,0,0,1,.369-.443.416.416,0,0,1,.25-.1c.21-.014.422,0,.677,0,0-.258,0-.479.007-.7a1.989,1.989,0,0,1,.048-.756c.095-.2.358-.322.551-.473.345-.27.694-.536,1.041-.8a1.3,1.3,0,0,1,.155-.114.2.2,0,0,1,.331.179c.007.074,0,.15,0,.224,0,.695,0,1.39,0,2.085,0,.1.012.208.02.34.135.006.249.016.363.016.492,0,.984,0,1.475,0,.24,0,.3.06.316.3.033.38-.128.561-.5.562-.438,0-.877,0-1.315,0Z" transform="translate(578.658 2025.433)" fill="#fff"/>
    <path id="Path_26" data-name="Path 26" d="M734.91-461.142c.009.117.021.2.02.285a2.031,2.031,0,0,1-.023.213c-.245.071-4.6.092-5.024.023v-.512c.17-.031.346-.06.522-.1a.772.772,0,0,0,.734-.824c.015-.181.017-.363.017-.545q0-2.165,0-4.331c0-.171-.006-.342-.017-.513a.72.72,0,0,0-.574-.718l-.507-.132v-.475a16.887,16.887,0,0,0,3.246-.768v2.064l.071.022c.057-.082.11-.167.171-.246.312-.406.608-.826.947-1.208a2.457,2.457,0,0,1,.643-.468,1.167,1.167,0,0,1,.994-.053,1.124,1.124,0,0,1,.77,1.2,1.279,1.279,0,0,1-1,1.154.708.708,0,0,1-.384-.1c-.151-.076-.276-.205-.427-.28a.906.906,0,0,0-1.076.118,1.878,1.878,0,0,0-.718,1.471c.023,1.154.008,2.309.013,3.464,0,.16.025.319.041.478a.668.668,0,0,0,.58.635c.229.047.463.077.695.113C734.709-461.16,734.793-461.154,734.91-461.142Z" transform="translate(484.706 2008.511)" fill="#fff"/>
    <path id="Path_27" data-name="Path 27" d="M787.932-460.571v-.525c.19-.034.378-.063.563-.1a.753.753,0,0,0,.7-.783c.019-.213.031-.427.031-.64q0-2.1,0-4.2c0-.2-.016-.406-.029-.608a.7.7,0,0,0-.562-.691c-.164-.044-.329-.086-.515-.134v-.476a17.544,17.544,0,0,0,3.249-.763v2.046l.061.022c.048-.059.1-.116.142-.178.265-.361.507-.743.8-1.078a3.806,3.806,0,0,1,.736-.608,1.112,1.112,0,0,1,.83-.164,1.16,1.16,0,0,1,1.027,1.064,1.328,1.328,0,0,1-.933,1.342.484.484,0,0,1-.451-.083,3.462,3.462,0,0,0-.395-.272.927.927,0,0,0-1.13.118,1.873,1.873,0,0,0-.7,1.449c.021,1.111,0,2.223.008,3.335,0,.2.02.405.041.607a.66.66,0,0,0,.544.631c.239.053.483.084.725.123.092.015.186.023.3.037v.53Z" transform="translate(434.417 2008.476)" fill="#fff"/>
    <path id="Path_28" data-name="Path 28" d="M753.372-595.687l.316.406c-.049.074-.089.146-.141.211a6.656,6.656,0,0,1-1.146,1.114,3.839,3.839,0,0,1-5.345-.764,4.284,4.284,0,0,1-.58-4.251,5.548,5.548,0,0,1,5.127-3.361,2.888,2.888,0,0,1,1.315.368.942.942,0,0,1-.007,1.686.416.416,0,0,1-.506-.018c-.094-.071-.182-.148-.273-.223a3.883,3.883,0,0,0-1.141-.7,1.729,1.729,0,0,0-2.242.818,3.563,3.563,0,0,0-.417,1.4,4.787,4.787,0,0,0,.22,2.18,3.166,3.166,0,0,0,.839,1.271,2.706,2.706,0,0,0,3.317.329C752.927-595.354,753.128-595.514,753.372-595.687Z" transform="translate(470.604 2123.562)" fill="#fff"/>
    <path id="Path_29" data-name="Path 29" d="M310.479-595.756l.333.422a4.586,4.586,0,0,1-3.133,2.055,3.915,3.915,0,0,1-3.871-2.063,4.468,4.468,0,0,1,.651-5.13,5.791,5.791,0,0,1,3.6-1.915,3.229,3.229,0,0,1,1.608.183,2.565,2.565,0,0,1,.32.146.94.94,0,0,1,.1,1.666.431.431,0,0,1-.611-.005c-.171-.128-.328-.274-.5-.4a3.2,3.2,0,0,0-1.044-.547,1.693,1.693,0,0,0-1.982.726,3.109,3.109,0,0,0-.454,1.188,4.824,4.824,0,0,0,.161,2.528,2.988,2.988,0,0,0,1.516,1.747,2.643,2.643,0,0,0,2.686-.159C310.069-595.443,310.259-595.6,310.479-595.756Z" transform="translate(854.282 2123.633)" fill="#fff"/>
    <path id="Path_30" data-name="Path 30" d="M704.883-593.185v-.521c.167-.028.333-.054.5-.083a.772.772,0,0,0,.764-.827c.022-.3.033-.6.033-.9q.005-1.812,0-3.623c0-.278-.011-.556-.03-.833a.715.715,0,0,0-.655-.779c-.134-.032-.27-.059-.426-.093-.01-.081-.026-.162-.03-.244s.006-.149.01-.228l3.265-.715v.363q0,3.174,0,6.349a7.8,7.8,0,0,0,.053.831.679.679,0,0,0,.546.634c.228.056.459.1.709.148v.519Z" transform="translate(506.364 2123.294)" fill="#fff"/>
    <path id="Path_31" data-name="Path 31" d="M712.374-630.57a1.224,1.224,0,0,1,1.247-1.226,1.221,1.221,0,0,1,1.229,1.243,1.23,1.23,0,0,1-1.249,1.226A1.222,1.222,0,0,1,712.374-630.57Z" transform="translate(499.875 2149.083)" fill="#fff"/>
    <path id="Path_32" data-name="Path 32" d="M588.238-632.185l-.531-.23a.864.864,0,0,1,.022-.129c.322-.939.65-1.875.963-2.816a.4.4,0,0,1,.373-.327c.467-.046.933-.1,1.4-.153a.515.515,0,0,1,.191.012.17.17,0,0,1,.106.251.956.956,0,0,1-.091.131q-1.132,1.533-2.265,3.066C588.36-632.321,588.309-632.268,588.238-632.185Z" transform="translate(607.876 2152.59)" fill="#fff"/>
  </g>
</svg>
